<?xml version="1.0" encoding="utf-8"?>
<!-- Generator: Adobe Illustrator 27.2.0, SVG Export Plug-In . SVG Version: 6.00 Build 0)  -->
<svg version="1.1" id="Layer_1" xmlns="http://www.w3.org/2000/svg" xmlns:xlink="http://www.w3.org/1999/xlink" x="0px" y="0px"
	 viewBox="0 0 473 560.2" style="enable-background:new 0 0 473 560.2;" xml:space="preserve">
<style type="text/css">
	.st0{fill:#7FDA6E;}
	.st1{fill:#FF9450;}
</style>
<g>
	<g>
		<path class="st0" d="M282.7,196.8c-16.2-15.4-67.9-55.5-96.2-83.5c-35-34.6,47.5-147.9,111.7,20.1
			C285.7,22.3,547.4,78,361.1,158.1c125.8,37.5,105.1,227.3-57,60.8C282.7,196.8,282.7,196.8,282.7,196.8z"/>
		<path d="M410.8,293.8c-21.6,0-57.3-13.3-112.1-69.6l-21.3-22c-6.3-5.9-18.1-15.8-31.8-27.2c-21-17.4-47-39.1-64.4-56.3
			c-11.6-11.4-13.9-30.1-6-48.8c8.7-20.7,26.8-33.9,46.2-33.5c19.2,0.3,46.3,13.1,72.6,68.2c7.3-19.3,25.1-33,51.1-38.5
			c17.6-3.8,37.4-3.2,54.2,1.5c18.8,5.3,31.3,14.8,35.1,26.9c2.5,7.9,2.4,20.4-12.2,35.2c-9.2,9.3-23.2,18.6-41.7,27.8
			c18,8.1,33.6,19.8,45.7,34.5c13.8,16.7,22.3,36.7,23.5,54.9c1.3,20.6-6.9,36.9-22,43.6C423.7,292.3,418,293.8,410.8,293.8z
			 M220.7,51.3c-15.8,0-26.9,13.1-31.7,24.4c-5.3,12.7-4.3,25.4,2.7,32.3c16.9,16.7,42.7,38.2,63.4,55.4c14,11.7,26.1,21.7,32.7,28
			c0.1,0.1,0.1,0.1,0.2,0.2l21.4,22.1c71.2,73.1,104,66.7,112.3,63c9.3-4.1,14-14.7,13.1-28.9c-1.9-30.3-28.7-68.4-76-82.5
			c-3-0.9-5.2-3.6-5.3-6.8s1.6-6.1,4.5-7.3c51.1-22,65.6-41.4,62.1-52.3c-4.5-14.2-38.6-25.4-72-18.3c-41.2,8.8-44.4,36.3-42.6,51.9
			c0.4,3.8-2,7.2-5.7,8.1c-3.7,0.9-7.4-1.1-8.8-4.6c-20.4-53.5-46-84.4-70-84.8C221,51.3,220.9,51.3,220.7,51.3z"/>
	</g>
	<g>
		<path class="st1" d="M300.3,188.9c-89.1-82.7-157.1-39.5-195.7,28.5c-6.4,11.2-13.4,23.7-20.6,37.1c-34,63-73,146.2-74.4,216.3
			c-0.2,8.8,6.6,16.3,15.5,16.7c93.1,4.7,243.1-83.7,275.3-104.6C395.9,324.9,342.6,227.5,300.3,188.9z"/>
		<path d="M32.5,495.2c-2.6,0-5.2-0.1-7.8-0.2C12,494.4,1.8,483.5,2.1,470.6C3.6,396,45.8,309.5,77.4,250.9
			c6.4-11.9,13.2-24.1,20.7-37.3c31.9-56.2,68.6-72.6,93.8-76.5c36.2-5.6,74.4,9.9,113.5,46.2c30.9,28.2,60,77.7,55.5,124.5
			c-3.2,33.1-22.2,60.5-56.5,81.3c-18.9,12.2-64.4,39.1-115.7,62.4C125,480.6,72.5,495.2,32.5,495.2z M206.3,151.1
			c-4.1,0-8.1,0.3-12.1,0.9c-21.9,3.4-54.2,18.1-83.1,69.1c-7.5,13.1-14.2,25.2-20.5,36.9c-48.4,89.7-72.4,159.3-73.5,212.9
			c-0.1,4.8,3.6,8.8,8.3,9.1c2.3,0.1,4.6,0.2,6.9,0.2c85.4,0,218.6-74.2,263.9-103.6c0.1,0,0.1-0.1,0.2-0.1
			c30.1-18.3,46.7-41.8,49.4-70c2.8-29.1-11.8-76.6-50.7-112c0,0,0,0,0,0C264.2,165.6,234.4,151.1,206.3,151.1z"/>
	</g>
	<g>
		<path class="st1" d="M156.8,322.2c-19.2-43.2-60-72-60-72"/>
		<path d="M156.8,329.7c-2.9,0-5.6-1.7-6.9-4.5c-18.1-40.7-57.1-68.6-57.5-68.9c-3.4-2.4-4.2-7.1-1.8-10.5c2.4-3.4,7.1-4.2,10.4-1.8
			c1.7,1.2,42.7,30.5,62.5,75.1c1.7,3.8,0,8.2-3.8,9.9C158.9,329.5,157.8,329.7,156.8,329.7z"/>
	</g>
	<g>
		<path class="st1" d="M96.9,402.6c14.4,28.8,9.7,72.3,9.7,72.3"/>
		<path d="M106.6,482.4c-0.3,0-0.5,0-0.8,0c-4.1-0.4-7.1-4.1-6.7-8.3c0-0.4,4.3-41.7-9-68.1c-1.9-3.7-0.4-8.2,3.4-10.1
			c3.7-1.9,8.2-0.4,10.1,3.4c15.2,30.4,10.6,74.6,10.4,76.5C113.6,479.5,110.4,482.4,106.6,482.4z"/>
	</g>
	<g>
		<path class="st1" d="M222.2,238.6c72.5,39.3,78.1,144.2,78.1,144.2"/>
		<path d="M300.3,390.3c-4,0-7.3-3.1-7.5-7.1c-0.1-1-6.3-101.2-74.2-138c-3.6-2-5-6.5-3-10.2c2-3.6,6.5-5,10.2-3
			c31.3,17,55.5,48.5,69.8,91c10.7,31.7,12.2,58.2,12.2,59.4c0.2,4.1-3,7.7-7.1,7.9C300.6,390.3,300.4,390.3,300.3,390.3z"/>
	</g>
</g>
</svg>
